<svg style="display: none" aria-hidden="true" xmlns="http://www.w3.org/2000/svg">
  <defs>
    <!-- Sidebar -->
    <symbol id="close" viewBox="0 0 12 16"><path d="M7.48 8l3.75 3.75-1.48 1.48L6 9.48l-3.75 3.75-1.48-1.48L4.52 8 .77 4.25l1.48-1.48L6 6.52l3.75-3.75 1.48 1.48L7.48 8z"/></symbol>
    <symbol id="ios-share" viewBox="0 0 30 30"><path d="M23 10.5h-4c-.3 0-.5.2-.5.5s.2.5.5.5h3.5v15h-15v-15H11c.3 0 .5-.2.5-.5s-.2-.5-.5-.5H7c-.3 0-.5.2-.5.5v16c0 .3.2.5.5.5h16c.3 0 .5-.2.5-.5V11c0-.3-.2-.5-.5-.5z"/><path d="M11.4 8.4l3.1-3.1V19c0 .3.2.5.5.5s.5-.2.5-.5V5.2l3.1 3.1c.2.2.5.2.7 0 .2-.2.2-.5 0-.7l-4-4a.5.5 0 0 0-.7 0l-4 4c-.2.2-.2.5 0 .7.2.2.6.2.8.1z"/></symbol>
    <symbol id="star" viewBox="0 0 26 28"><path d="M26 10.1c0 .3-.2.6-.4.8l-5.7 5.5 1.4 7.8v.3c0 .4-.2.8-.7.8-.2 0-.4 0-.6-.2l-7-3.7-7 3.7-.6.2c-.5 0-.7-.4-.7-.8v-.3l1.4-7.8-5.7-5.5c-.2-.2-.4-.5-.4-.8 0-.5.5-.6.9-.7l7.8-1.2 3.5-7c.2-.4.4-.7.8-.7s.6.3.8.6l3.5 7.1L25 9.4c.4 0 .9.2.9.7z"/></symbol>
    <symbol id="download" viewBox="0 0 20 20"><path d="M13 8v-6h-6v6h-5l8 8 8-8h-5zM0 18h20v2h-20v-2z"/></symbol>
    <symbol id="home" viewBox="0 0 16 16"><path d="M16 9.2L8 3 0 9.2V6.7L8 .5l8 6.2zM14 9v6h-4v-4H6v4H2V9l6-4.5z"/></symbol>
    <symbol id="share" viewBox="0 0 1792 1792"><path d="M1344 1024q133 0 227 94t93 226-93 227-227 93-226-93-94-227l2-34-360-180q-92 86-218 86-133 0-226-93t-94-227 94-226 226-94q126 0 218 86l360-180-2-34q0-133 94-226t226-94 227 94 93 226-93 227-227 93q-126 0-218-86L766 862l2 34-2 34 360 180q92-86 218-86z"/></symbol>
    <symbol id="whatsapp" viewBox="0 0 24 24"><path d="M17.5 14.4l-2-1c-.3 0-.5-.1-.7.2l-1 1.1c-.1.2-.3.2-.6.1s-1.3-.5-2.4-1.5a9 9 0 0 1-1.7-2c-.1-.4 0-.5.2-.7l.4-.5.3-.5v-.5L9 6.9c-.2-.6-.4-.5-.6-.5h-.6c-.2 0-.5 0-.8.3-.2.3-1 1-1 2.5s1 2.9 1.2 3c.1.3 2.1 3.3 5.1 4.6l1.7.6c.7.2 1.4.2 1.9.1.6 0 1.7-.7 2-1.4.3-.7.3-1.3.2-1.4-.1-.2-.3-.3-.6-.4m-5.4 7.4A10 10 0 0 1 7 20.4l-.4-.2-3.7 1 1-3.7-.3-.4A9.9 9.9 0 0 1 12.1 2a9.9 9.9 0 0 1 9.9 9.9 10 10 0 0 1-10 9.9m8.5-18.4A12.1 12.1 0 0 0 12 0 12 12 0 0 0 1.7 17.8L0 24l6.3-1.7A12 12 0 0 0 20.5 3.4"/></symbol>
    <symbol id="telegram" viewBox="70 70 450 450"><path fill="#c8daea" d="M199 404c-11 0-10-4-13-14l-32-105 245-144"/><path fill="#a9c9dd" d="M199 404c7 0 11-4 16-8l45-43-56-34"/><path fill="#37aee2" d="M204 319l135 99c14 9 26 4 30-14l55-258c5-22-9-32-24-25L79 245c-21 8-21 21-4 26l83 26 190-121c9-5 17-3 11 4"/></symbol>
    <symbol id="facebook" viewBox="0 0 24 24"><path d="M22.7 0H1.3C.6 0 0 .6 0 1.3v21.4c0 .7.6 1.3 1.3 1.3h11.5v-9.3H9.7v-3.6h3.1V8.4c0-3 2-4.8 4.7-4.8l2.8.2V7h-2c-1.4 0-1.7.7-1.7 1.8V11H20l-.4 3.6h-3.1V24h6c.8 0 1.4-.6 1.4-1.3V1.3c0-.7-.6-1.3-1.3-1.3"/></symbol>
    <symbol id="twitter" viewBox="0 0 24 24"><path d="M24 4.6c-1 .4-1.9.6-2.9.7a5 5 0 0 0 2.2-2.7c-1 .6-2 1-3.1 1.2a5 5 0 0 0-3.6-1.6 5 5 0 0 0-4.8 6 14 14 0 0 1-10.2-5c-.4.7-.6 1.5-.6 2.4a5 5 0 0 0 2.2 4.1c-.8 0-1.6-.2-2.3-.6A5 5 0 0 0 5 14a5 5 0 0 1-2.2 0 5 5 0 0 0 4.6 3.5 9.9 9.9 0 0 1-7.3 2A14 14 0 0 0 21.7 7.8V7A10 10 0 0 0 24 4.6z"/></symbol>
    <symbol id="mail" viewBox="0 0 20 20"><path d="M18 2a2 2 0 0 1 2 2v12a2 2 0 0 1-2 2H2a2 2 0 0 1-2-2V4c0-1.1.9-2 2-2h16zm-4.4 9.1L20 16v-2l-5.1-3.9L20 6V4l-10 8L0 4v2l5.1 4.1L0 14v2l6.4-4.9L10 14l3.6-2.9z"/></symbol>
    <symbol id="copy" viewBox="0 0 25 25"><path d="M16 1H4C3 1 2 2 2 3v14h2V3h12V1zm3 4H8C7 5 6 6 6 7v14c0 1 1 2 2 2h11c1 0 2-1 2-2V7c0-1-1-2-2-2zm0 16H8V7h11v14z"/></symbol>
    <symbol id="heart" viewBox="0 0 16 16"><path d="M11.5 1a4 4 0 0 0-3 1.3l-.5.6-.5-.6C6.7 1.5 5.7 1 4.5 1A4.5 4.5 0 0 0 0 5.5c0 1.2.5 2.3 1.3 3.2l6 6a1 1 0 0 0 1.4 0l6-6a4.5 4.5 0 0 0 0-6.4c-.9-.8-2-1.3-3.2-1.3z"/></symbol>
    <symbol id="question" viewBox="0 0 20 20"><path d="M10 .4a9.6 9.6 0 1 0 0 19.2A9.6 9.6 0 0 0 10 .4zm-.2 15.2c-.8 0-1.3-.6-1.3-1.4 0-.7.6-1.3 1.3-1.3.9 0 1.4.6 1.4 1.4 0 .8-.6 1.3-1.4 1.3zm3.3-6.5l-1 1-.6.3-.6.7v.6H8.6c0-.8 0-1.3.3-1.6.5-.6 1.6-1.3 1.6-1.3l.4-.4.3-.8c0-.3 0-.6-.2-1-.2-.2-.6-.3-1.1-.3-.5 0-.9.1-1 .5a2 2 0 0 0-.4 1V8H6.4c0-1.4.5-2.4 1.4-3a4.8 4.8 0 0 1 4.8.3c.7.5 1 1.3 1 2.3 0 .5-.1 1-.5 1.6z"/></symbol>
    <symbol id="subscribe" viewBox="0 0 52 52"><path d="M47 30.6l-.2.1-.1.1-.7.4-2.1 1.3-2.9 1.7-4 2.3-.8.5-1.1.6 9.4 6.6a1 1 0 0 1 .3 1.4 1 1 0 0 1-1.4.2l-10.2-7-4.6-3.3-.8-.5-1.2-.8h-.1l-.2-.2a1.1 1.1 0 0 0-.6 0h-.2l-.1.2-1.2.8-5.4 3.8-10.2 7a1 1 0 0 1-.6.2 1 1 0 0 1-.8-.4 1 1 0 0 1 .2-1.4l9.5-6.6-1.1-.6-.8-.5-4.9-2.8L6 31.2l-1-.6-1-.5-2-1.2V47a3 3 0 0 0 3 3h42a3 3 0 0 0 3-3V28.9L48 30z"/><path d="M49.3 20a3.5 3.5 0 0 0-.4-.4L44 15.8V5a3 3 0 0 0-3-3H11a3 3 0 0 0-3 3v10.8l-4.8 3.8a3.5 3.5 0 0 0-.5.4 3 3 0 0 0-.7 2v4.6l4 2.3 10.8 6.4 1.9 1 3.6-2.4 2-1.4a3.2 3.2 0 0 1 3.5 0l1.9 1.4 3.6 2.5 2-1.1L46 28.9l4-2.3v-4.7a3 3 0 0 0-.7-1.9zM48 23.1L45 25l-1 .6-1 .6-1 .5-8.5 5-3.5-2.3a7.2 7.2 0 0 0-8 0l-3.5 2.3-8.5-5-1-.5-1-.6-1-.6-3-1.8V22a1 1 0 0 1 .4-.8h.1L8 18.3v4.8l2 1V5a1 1 0 0 1 1-1h30a1 1 0 0 1 1 1v19.3l2-1.2v-4.7l3.5 2.7h.1a1 1 0 0 1 .4.9z"/><path d="M15 8.5h13.2v3H15zM15 14.5h22v3H15zM15 20.5h22v3H15z"/></symbol>
  </defs>
</svg>
